<svg width="177" height="42" viewBox="0 0 177 42" fill="none" xmlns="http://www.w3.org/2000/svg">
<g clip-path="url(#clip0_1819_24199)">
<g clip-path="url(#clip1_1819_24199)">
<mask id="mask0_1819_24199" style="mask-type:luminance" maskUnits="userSpaceOnUse" x="2" y="3" width="173" height="36">
<path d="M174.5 3H2.5V38.7354H174.5V3Z" fill="white"/>
</mask>
<g mask="url(#mask0_1819_24199)">
<path d="M25.1292 25.4443C25.1292 34.8814 30.4911 38.6903 35.358 38.6903C39.4006 38.6903 43.8546 36.6808 45.2166 30.5203L44.8037 30.4328C43.7723 34.9765 40.8023 38.2531 35.358 38.2531C31.398 38.2531 31.4392 31.918 31.4392 26.3691V22.2614H45.6283C45.6283 15.5777 41.8752 10.6403 35.358 10.6403C30.4911 10.6403 25.1292 16.0517 25.1292 25.4443ZM35.358 11.0777C39.4829 11.0777 39.3594 18.6363 39.3183 21.8254H31.4403C31.4392 16.5817 31.6874 11.0777 35.358 11.0777Z" fill="white"/>
</g>
<mask id="mask1_1819_24199" style="mask-type:luminance" maskUnits="userSpaceOnUse" x="2" y="3" width="173" height="36">
<path d="M174.5 3H2.5V38.7354H174.5V3Z" fill="white"/>
</mask>
<g mask="url(#mask1_1819_24199)">
<path d="M27.16 33.1354H26.7471C26.7471 36.1488 25.4686 36.4105 25.1806 36.4105C24.4794 36.4105 23.902 35.4065 23.902 33.0045V16.7897C23.902 12.5525 20.8089 10.6302 17.5509 10.6302C14.4166 10.6302 11.0766 12.3782 10.1271 15.5662V5.42225C9.98 4.06139 8.91 2.99939 7.58629 2.99939H2.50629V3.43653H2.5C3.32457 3.43653 3.86086 4.00453 3.86086 4.87796V36.3668C3.86086 37.2402 3.32457 37.8082 2.5 37.8082H2.50629V38.2457H11.4843V37.8082H11.4903C10.666 37.8082 10.1297 37.2402 10.1297 36.3668V17.3577C10.1297 14.3877 12.6866 11.9845 14.7897 11.9845C16.3149 11.9845 17.5934 13.1645 17.5934 16.2217V33.0045C17.5934 36.9785 19.8209 38.6828 22.212 38.6828C25.0571 38.6842 27.16 36.8491 27.16 33.1354Z" fill="white"/>
</g>
<mask id="mask2_1819_24199" style="mask-type:luminance" maskUnits="userSpaceOnUse" x="2" y="3" width="173" height="36">
<path d="M174.5 3H2.5V38.7354H174.5V3Z" fill="white"/>
</mask>
<g mask="url(#mask2_1819_24199)">
<path d="M66.9031 15.0562C66.9031 12.0414 63.6863 10.2511 60.3448 10.2511C57.2928 10.2511 54.1983 11.6925 53.168 15.1011V13.0005C53.0308 11.6937 52.0317 10.6725 50.7783 10.6011H45.5434V11.0382H45.5371C46.3617 11.0382 46.898 11.6068 46.898 12.48V35.7288H46.8991C46.9828 37.1042 48.0254 38.1954 49.3303 38.2562V38.2574H54.5225V37.8202H54.5288C53.7043 37.8202 53.168 37.252 53.168 36.3788V16.8914C53.168 13.8765 55.7663 11.386 57.9114 11.386C59.2723 11.386 60.4271 12.4351 60.5931 15.0125C60.5931 16.9785 61.9128 18.3762 63.77 18.3762C65.6645 18.3762 66.9031 17.0657 66.9031 15.0562Z" fill="white"/>
</g>
<mask id="mask3_1819_24199" style="mask-type:luminance" maskUnits="userSpaceOnUse" x="2" y="3" width="173" height="36">
<path d="M174.5 3H2.5V38.7354H174.5V3Z" fill="white"/>
</mask>
<g mask="url(#mask3_1819_24199)">
<path d="M69.3384 11.0901C70.1741 11.0901 70.9335 11.7506 71.2752 12.7652L79.7844 38.2561H80.2407L86.1292 20.5841L92.0175 38.2561H92.4741L100.983 12.7652C101.325 11.7492 102.084 11.0901 102.92 11.0901H102.972V10.5826H99.6758V11.0901H99.7284C100.564 11.0901 100.868 11.7506 100.527 12.7652L95.3604 28.2535L90.1941 12.7652C89.8524 11.7492 90.1567 11.0901 90.9924 11.0901H91.0447V10.5826H81.5181V11.0901H81.5704C82.4061 11.0901 83.1655 11.7506 83.5075 12.7652L85.8998 19.9246L83.127 28.2532L77.9607 12.7652C77.619 11.7492 77.9232 11.0901 78.759 11.0901H78.8115V10.5826H69.2847V11.0901H69.3384Z" fill="white"/>
</g>
<mask id="mask4_1819_24199" style="mask-type:luminance" maskUnits="userSpaceOnUse" x="2" y="3" width="173" height="36">
<path d="M174.5 3H2.5V38.7354H174.5V3Z" fill="white"/>
</mask>
<g mask="url(#mask4_1819_24199)">
<path d="M110.307 38.5688C115.174 38.5688 121.225 34.0834 121.225 24.6025C121.225 15.1654 115.174 10.6797 110.307 10.6797C105.44 10.6797 99.4312 15.2103 99.4312 24.6025C99.4323 34.0385 105.44 38.5688 110.307 38.5688ZM110.307 11.116C114.267 11.116 114.913 19.1845 114.913 24.6463C114.913 30.108 114.267 38.1314 110.307 38.1314C106.347 38.1314 105.742 30.1951 105.742 24.6463C105.742 19.0971 106.349 11.116 110.307 11.116Z" fill="white"/>
</g>
<mask id="mask5_1819_24199" style="mask-type:luminance" maskUnits="userSpaceOnUse" x="2" y="3" width="173" height="36">
<path d="M174.5 3H2.5V38.7354H174.5V3Z" fill="white"/>
</mask>
<g mask="url(#mask5_1819_24199)">
<path d="M142.495 15.0562C142.495 12.0414 139.278 10.2511 135.937 10.2511C132.885 10.2511 129.79 11.6925 128.76 15.1011V13.0005C128.623 11.6937 127.624 10.6725 126.37 10.6011H121.134V11.0382H121.128C121.952 11.0382 122.489 11.6068 122.489 12.48V35.7288H122.49C122.573 37.1042 123.616 38.1954 124.921 38.2562V38.2574H130.113V37.8202H130.119C129.295 37.8202 128.759 37.252 128.759 36.3788V16.8914C128.759 13.8765 131.357 11.386 133.502 11.386C134.863 11.386 136.018 12.4351 136.184 15.0125C136.184 16.9785 137.503 18.3762 139.361 18.3762C141.258 18.3762 142.495 17.0657 142.495 15.0562Z" fill="white"/>
</g>
<mask id="mask6_1819_24199" style="mask-type:luminance" maskUnits="userSpaceOnUse" x="2" y="3" width="173" height="36">
<path d="M174.5 3H2.5V38.7354H174.5V3Z" fill="white"/>
</mask>
<g mask="url(#mask6_1819_24199)">
<path d="M174.5 32.7069H174.087C174.087 35.722 172.809 35.9834 172.521 35.9834C171.82 35.9834 171.242 34.978 171.242 32.5763V4.88144C171.242 4.0083 171.779 3.44001 172.603 3.44001H172.555V3.00287H167.494C166.082 3.00287 164.936 4.2143 164.933 5.71001H164.931V12.3766C163.199 11.2403 162.119 10.8043 160.222 10.8043C155.355 10.8043 149.993 14.8526 149.993 24.246C149.993 33.7269 153.737 38.7369 160.222 38.7369C162.532 38.7369 164.023 38.0814 165.92 36.3786C166.786 37.6892 168.148 38.2572 169.55 38.2572C172.397 38.256 174.5 36.4209 174.5 32.7069ZM165.714 36.0283C164.353 37.2954 162.617 37.6917 161.891 37.6917C158.611 37.6917 156.303 32.8537 156.303 24.2897C156.303 15.7269 159.422 11.9406 161.985 11.9406C162.928 11.9406 163.775 11.9843 164.93 12.814V32.5774C164.931 34.0174 165.22 35.1537 165.714 36.0283Z" fill="white"/>
</g>
<mask id="mask7_1819_24199" style="mask-type:luminance" maskUnits="userSpaceOnUse" x="2" y="3" width="173" height="36">
<path d="M174.5 3H2.5V38.7354H174.5V3Z" fill="white"/>
</mask>
<g mask="url(#mask7_1819_24199)">
<path d="M150.067 37.8186C149.243 37.8186 148.706 37.2506 148.706 36.3772V5.70458C148.7 4.21173 147.556 3.00287 146.145 3.00287H141.081V3.44001H141.075C141.901 3.44001 142.436 4.0083 142.436 4.88144V35.858C142.583 37.162 143.587 38.1806 144.846 38.24V38.2572H150.061V37.82H150.067V37.8186Z" fill="white"/>
</g>
</g>
</g>
<defs>
<clipPath id="clip0_1819_24199">
<rect width="177" height="42" fill="white"/>
</clipPath>
<clipPath id="clip1_1819_24199">
<rect width="172.286" height="36" fill="white" transform="translate(2.35718 3)"/>
</clipPath>
</defs>
</svg>
