<svg width="177" height="42" viewBox="0 0 177 42" fill="none" xmlns="http://www.w3.org/2000/svg">
<g clip-path="url(#clip0_1819_24175)">
<g clip-path="url(#clip1_1819_24175)">
<path d="M49.039 9.97773C51.9385 8.92484 52.2937 7.48471 52.2353 6.69553V3.21134C52.2353 1.96852 51.7127 1.22296 51.2744 0.815619C50.3986 0.00295545 49.2923 -0.0124791 49.0082 0.00295543H37.1715C36.8579 -0.0104659 35.7489 -0.000399917 34.8704 0.815619C34.4321 1.22296 33.9095 1.96852 33.9095 3.21134V6.72436C33.8853 7.32832 34.1473 8.86037 37.0857 9.97101C38.7938 10.6166 39.3091 10.8112 39.3091 13.6854V37.1809C39.2823 37.6284 39.2763 39.1793 40.3377 40.3308C40.8068 40.8409 41.6625 41.4482 43.0697 41.4482C44.4769 41.4482 45.332 40.8442 45.8011 40.3315C46.8639 39.178 46.8578 37.6278 46.8317 37.2244V13.6854C46.8317 10.7783 47.3872 10.5763 49.0363 9.97773H49.039ZM45.3682 13.6854V37.2701C45.3762 37.4043 45.4265 38.5746 44.7249 39.3356C44.4568 39.6296 43.9475 39.9805 43.0711 39.9805C42.1946 39.9805 41.688 39.6296 41.4166 39.335C40.717 38.5753 40.7659 37.4003 40.7753 37.2244V13.6854C40.7753 9.96964 39.6877 9.38516 37.6037 8.59735C35.4004 7.76454 35.3703 6.88007 35.375 6.75323V3.21134C35.375 2.49866 35.643 2.10072 35.8662 1.89269C36.2823 1.50615 36.8465 1.46991 37.0623 1.46991H49.0424C49.1656 1.46455 49.8083 1.45783 50.278 1.89269C50.5018 2.10072 50.7692 2.49665 50.7692 3.21134V6.72572C50.7692 6.74788 50.7692 6.77066 50.7692 6.79282C50.8101 7.23639 50.2499 7.97527 48.5364 8.59735C46.3345 9.39792 45.3682 10.1213 45.3682 13.6854Z" fill="white"/>
<path d="M87.6925 29.0077C87.9198 28.9695 88.7503 28.8642 90.9968 28.8642C92.0967 28.8642 93.0485 28.4529 93.7504 27.6732C95.3302 25.9186 95.0488 22.9509 95.0152 22.6698C94.9952 22.1968 94.4434 11.0889 87.598 11.05C86.7469 11.003 82.4005 11.1566 80.0255 19.1224C79.963 19.3317 79.9046 19.5404 79.8481 19.7484V18.8419C79.8584 18.6353 79.8552 18.4282 79.8387 18.2219C79.8072 14.961 77.5167 11.3264 74.4828 11.3264C72.5128 11.3264 70.89 12.6683 69.9826 13.6238C68.9569 11.6618 67.1615 11.3056 66.2467 11.425C65.8021 11.4485 64.5776 11.6531 62.754 13.0279C61.8808 11.5237 60.6006 11.2895 59.89 11.2895C58.4795 11.2895 57.6224 11.8974 57.1523 12.4067C56.087 13.56 56.0937 15.11 56.1199 15.5126V37.1708C56.0923 37.6183 56.0856 39.1682 57.1509 40.3243C57.6211 40.8343 58.4781 41.4415 59.8887 41.4415C61.2992 41.4415 62.1569 40.8376 62.6271 40.325C63.689 39.1749 63.6829 37.6411 63.6574 37.2459V25.0504C63.6621 24.9927 63.6635 24.9343 63.6628 24.8733C63.6286 22.9275 63.8025 21.6895 63.9953 21.0715C64.2116 21.7425 64.3909 23.0348 64.3909 24.8833C64.3903 24.9427 64.3927 25.002 64.3983 25.0611L64.3909 37.2291C64.3674 37.7028 64.3815 39.1843 65.3567 40.3068C65.8054 40.8249 66.6242 41.4415 67.9763 41.4415C69.3284 41.4415 70.1485 40.8249 70.5958 40.3075C71.5724 39.1823 71.5859 37.6908 71.5624 37.2117V25C71.5675 24.9411 71.5693 24.882 71.5677 24.8229C71.5335 22.8771 71.7081 21.6392 71.9036 21.0212C72.1199 21.6922 72.2992 22.9845 72.2992 24.833C72.2992 24.8934 72.2992 24.9524 72.3065 25.0108V37.1775C72.2783 37.625 72.2723 39.1749 73.3369 40.331C73.8071 40.841 74.6641 41.4482 76.0753 41.4482C77.4865 41.4482 78.3429 40.8443 78.8131 40.3317C79.879 39.1783 79.8716 37.6283 79.8454 37.2251V33.1832C80.012 33.8307 80.1423 34.2158 80.1638 34.2775C80.2592 34.5748 82.555 41.4381 87.5854 41.4381C91.6615 41.4381 93.6622 38.1262 94.1358 36.3568C94.4135 35.5457 94.5526 33.8575 93.3163 32.6719C92.0804 31.4863 90.5028 31.6782 89.4911 32.5793C89.1252 32.9524 88.4836 33.3684 88.2731 33.3744C87.2688 33.3744 87.1024 31.7547 87.1024 31.0334C87.1024 29.6244 87.4657 29.1547 87.5785 29.044C87.6163 29.0339 87.6536 29.0219 87.6898 29.0077H87.6925ZM77.7357 39.3259C77.467 39.6198 76.9566 39.9707 76.078 39.9707C75.1994 39.9707 74.691 39.6198 74.4197 39.3253C73.7177 38.5651 73.7675 37.3915 73.7769 37.2151V24.9638C73.777 24.9179 73.7747 24.872 73.7701 24.8263C73.7701 22.0223 73.4195 20.2362 72.7277 19.5176C72.631 19.4096 72.5129 19.3231 72.3808 19.2633C72.2487 19.2036 72.1056 19.172 71.9607 19.1707C71.7885 19.1701 71.6181 19.2056 71.4605 19.275C71.3029 19.3443 71.1616 19.446 71.0458 19.5733C70.2049 20.4455 70.0692 22.9207 70.1055 24.8739C70.102 24.9033 70.1002 24.9329 70.1001 24.9625V37.2151C70.1001 37.2231 70.1042 37.2285 70.1048 37.2365C70.1055 37.2446 70.1008 37.2499 70.1014 37.258C70.1088 37.3922 70.1565 38.5778 69.4922 39.3427C69.1316 39.7594 68.6231 39.9707 67.9823 39.9707C67.3416 39.9707 66.8331 39.7594 66.4724 39.3427C65.8095 38.5791 65.8565 37.407 65.8638 37.2754C65.8638 37.268 65.8638 37.262 65.8638 37.254C65.8658 37.2474 65.8674 37.2406 65.8686 37.2338L65.8753 25.0182C65.8757 24.972 65.8735 24.9259 65.8686 24.8799C65.8686 22.076 65.518 20.2899 64.8261 19.5719C64.7296 19.4638 64.6115 19.377 64.4794 19.3172C64.3473 19.2573 64.2041 19.2257 64.0591 19.2244C63.8869 19.2238 63.7165 19.2594 63.5589 19.3288C63.4014 19.3981 63.2601 19.4997 63.1442 19.6269C62.3033 20.4992 62.1676 22.9751 62.2039 24.9276C62.2004 24.9568 62.1987 24.9861 62.1986 25.0155L62.2019 37.2942C62.2147 37.5042 62.2449 38.5912 61.5591 39.3326C61.2904 39.6265 60.78 39.9774 59.9014 39.9774C59.0229 39.9774 58.5151 39.6265 58.2437 39.332C57.5412 38.5717 57.5915 37.3982 57.6009 37.2217V15.4743C57.5929 15.3401 57.5425 14.1699 58.2457 13.409C58.5144 13.1145 59.0249 12.7642 59.9027 12.7642C60.6342 12.7642 61.2058 13.1669 61.6014 13.972C61.6075 13.9841 61.635 14.0431 61.6417 14.0552C61.6773 14.1317 61.7089 14.2102 61.7425 14.29C61.7703 14.3629 61.8095 14.4308 61.8587 14.4913C61.8741 14.5094 61.8983 14.535 61.9144 14.5517C62.0239 14.6608 62.1648 14.7329 62.3174 14.7577C62.7365 14.8248 63.2531 14.5128 63.6111 14.2417C65.2144 13.0206 66.1594 12.9132 66.3851 12.8998C66.4523 12.8911 68.0737 12.7106 68.8629 14.7C68.9573 14.9523 69.0834 15.1915 69.2383 15.4119C69.3081 15.5054 69.399 15.581 69.5038 15.6323C69.6086 15.6837 69.7241 15.7093 69.8408 15.7072C69.9575 15.705 70.072 15.6751 70.1748 15.6199C70.2776 15.5647 70.3657 15.4858 70.4319 15.3898C70.5441 15.2368 72.361 12.8072 74.4888 12.8072C76.6167 12.8072 78.3604 15.7971 78.3758 18.2716C78.3758 18.2904 78.3758 18.3091 78.3758 18.3272C78.389 18.4895 78.3919 18.6524 78.3845 18.8151V37.2741C78.3926 37.4083 78.443 38.5784 77.7397 39.3393L77.7357 39.3259ZM87.1958 27.6222C87.1176 27.6343 87.042 27.6588 86.9716 27.6947C86.5564 27.896 85.6352 28.6199 85.6352 31.0334C85.6352 34.6224 87.6699 34.8425 88.2757 34.8425C89.3189 34.8425 90.4351 33.7153 90.4477 33.7019C90.4865 33.6683 91.4058 32.8718 92.3009 33.7327C93.0049 34.4084 92.9015 35.4356 92.7335 35.9315C92.3466 37.3714 90.7726 39.9727 87.588 39.9727C83.6182 39.9727 81.5858 33.8944 81.5602 33.8166C81.4642 33.5388 79.2342 26.921 81.4332 19.543C83.4194 12.8864 86.7107 12.514 87.4494 12.514C87.493 12.514 87.5281 12.514 87.5523 12.5173C89.7851 12.5294 91.4625 14.1471 92.5403 17.3235C93.4207 19.9228 93.5436 22.6188 93.553 22.7825C93.553 22.808 93.8302 25.3912 92.6595 26.6922C92.2389 27.1619 91.6804 27.3968 91 27.3968C88.4548 27.3968 87.5743 27.531 87.3171 27.5853C87.2767 27.5946 87.2373 27.6069 87.199 27.6222" fill="white"/>
<path d="M55.3079 15.5433C55.3358 15.0961 55.3425 13.5457 54.266 12.3908C53.7912 11.8812 52.9257 11.2729 51.5012 11.2729C50.0767 11.2729 49.2112 11.8812 48.7364 12.3929C47.6606 13.5478 47.6674 15.0981 47.6938 15.5017V37.1742C47.666 37.6227 47.6592 39.1738 48.7351 40.3301C49.2099 40.8404 50.0754 41.448 51.4999 41.448C52.9243 41.448 53.7899 40.8357 54.2647 40.3254C55.3412 39.1718 55.3344 37.6207 55.3079 37.2172V15.5433ZM53.1753 39.3296C52.904 39.6237 52.3885 39.9748 51.5012 39.9748C50.614 39.9748 50.1012 39.6237 49.8272 39.3289C49.1176 38.5682 49.1685 37.3938 49.1773 37.2172V15.4547C49.1692 15.3204 49.1183 14.1481 49.8278 13.3866C50.0992 13.0932 50.6153 12.742 51.5019 12.742C52.3885 12.742 52.902 13.0932 53.1767 13.3866C53.8862 14.1487 53.8353 15.3224 53.8258 15.499V37.2622C53.834 37.3965 53.8848 38.5682 53.1747 39.3296" fill="white"/>
<path d="M106.275 33.2496C105.935 33.2489 105.601 33.1524 105.313 32.9714C105.025 32.7904 104.796 32.5324 104.652 32.2276C103.738 30.2815 103.255 26.5806 103.255 21.5188C103.255 14.827 103.997 11.667 104.621 10.1947C104.757 9.87326 104.986 9.59874 105.279 9.40559C105.573 9.21249 105.919 9.10944 106.272 9.10944C106.625 9.10944 106.97 9.21249 107.264 9.40559C107.558 9.59874 107.787 9.87326 107.923 10.1947C108.546 11.667 109.289 14.825 109.289 21.5188C109.289 26.5692 108.809 30.2707 107.902 32.2208C107.758 32.5274 107.53 32.7873 107.241 32.9695C106.954 33.1518 106.619 33.249 106.276 33.2496H106.275ZM106.269 10.6221C106.218 10.6222 106.169 10.637 106.127 10.6645C106.085 10.6921 106.052 10.7313 106.033 10.7772C105.464 12.1193 104.784 15.0773 104.784 21.5188C104.784 27.9603 105.571 30.5942 106.041 31.5914C106.061 31.6349 106.094 31.6718 106.135 31.6977C106.176 31.7237 106.224 31.7375 106.273 31.7377C106.321 31.737 106.369 31.7228 106.409 31.6968C106.45 31.6708 106.482 31.634 106.503 31.5907C106.969 30.5888 107.751 27.9489 107.751 21.5188C107.751 15.0766 107.07 12.1239 106.503 10.7772C106.483 10.7312 106.451 10.692 106.409 10.6644C106.367 10.6368 106.317 10.6221 106.266 10.6221" fill="white"/>
<path d="M87.3103 17.8773C87.3103 17.8773 85.6042 17.886 85.6042 20.5344C85.6042 23.0426 87.3103 22.8855 87.3103 22.8855C87.3103 22.8855 89.0202 23.0426 89.0202 20.5344C89.0202 17.886 87.3134 17.8773 87.3134 17.8773H87.3103ZM87.3213 21.411H87.3061C87.041 21.411 87.0583 21.1029 87.0583 20.2735C87.0583 19.4442 87.3061 19.4071 87.3061 19.4071H87.3213C87.3213 19.4071 87.5691 19.4435 87.5691 20.2735C87.5691 21.1035 87.5849 21.411 87.3213 21.411Z" fill="white"/>
<path d="M140.921 34.2497C140.769 34.2236 139.435 33.9175 139.434 31.3638V18.8906C139.434 18.8751 139.434 18.8597 139.434 18.8449C141.002 18.6093 142.499 17.3281 142.499 15.1402C142.499 12.8583 140.972 11.7704 139.433 11.463V6.28505C139.459 5.83806 139.466 4.28707 138.403 3.13471C137.933 2.62464 137.077 2.01658 135.666 2.01591C134.255 2.01524 133.398 2.62464 132.93 3.13403C131.865 4.28707 131.872 5.83743 131.898 6.24079V10.7006C131.883 10.7892 131.877 10.8791 131.879 10.969L131.892 11.7932C131.255 12.0867 130.722 12.5667 130.365 13.1697C130.221 12.8883 130.04 12.6272 129.828 12.3932C129.358 11.8838 128.501 11.2764 127.091 11.2757C125.68 11.275 124.825 11.8838 124.354 12.3932C123.29 13.5475 123.297 15.0972 123.323 15.4999V29.2618C123.314 29.3388 123.31 29.4164 123.31 29.494V29.839C123.31 29.9497 123.31 30.0531 123.31 30.1524V30.1577C123.31 30.3953 123.304 30.5987 123.295 30.7766L123.292 30.9014C123.292 31.4262 123.157 31.8517 122.993 31.8517C122.829 31.8517 122.694 31.4262 122.694 30.9014L122.667 30.2027C122.667 30.1933 122.667 30.1846 122.667 30.1745V30.1665C122.652 29.7376 122.653 29.3208 122.653 29.041C122.653 28.6215 122.653 28.2121 122.642 27.8926V15.5435C122.663 15.2247 122.709 13.5778 121.613 12.3892C121.143 11.8791 120.285 11.2723 118.877 11.2717C117.468 11.271 116.61 11.8798 116.139 12.3892C115.809 12.7521 115.553 13.1765 115.386 13.6381C114.655 8.55756 113.109 4.94076 110.765 2.84343C108.724 1.01858 106.718 1.0065 106.267 1.03134C105.682 0.996434 103.765 1.03671 101.779 2.7884C98.3767 5.79176 96.6494 12.0254 96.6494 21.3187C96.6494 30.4356 98.3662 36.59 101.751 39.6115C103.604 41.2679 105.42 41.4464 106.115 41.4464C106.182 41.4464 106.233 41.4464 106.279 41.4464C106.874 41.4646 108.809 41.3639 110.807 39.5505C112.869 37.6786 114.309 34.6511 115.116 30.5162V33.488C115.097 34.2571 115.103 38.1961 117.076 40.2182C117.823 40.984 118.735 41.382 119.785 41.4028C121.321 41.4028 122.537 41.1189 123.923 39.7316C124.569 40.8142 125.695 41.4337 127.095 41.4337C128.495 41.4337 129.361 40.8296 129.831 40.3162C130.896 39.1639 130.889 37.6128 130.863 37.2102V17.7617C131.161 18.0658 131.511 18.3139 131.897 18.4939C131.897 18.5208 131.897 18.5509 131.897 18.5845V32.1544C131.881 32.4356 131.892 32.7177 131.931 32.9967C132.516 40.7773 137.331 41.382 138.778 41.382H138.894H138.906C139.253 41.382 140.153 41.3424 141.016 40.9706C142.345 40.3988 143.108 39.2598 143.108 37.8464C143.108 34.8518 141.551 34.3309 140.915 34.2504L140.921 34.2497ZM109.813 38.4598C108.145 39.9739 106.595 39.9914 106.298 39.9746C106.274 39.9746 106.248 39.9746 106.223 39.9746C105.862 39.9947 104.331 39.9525 102.723 38.5162C99.6692 35.7846 98.1205 29.998 98.1205 21.3187C98.1205 12.4663 99.6797 6.60252 102.752 3.89042C104.178 2.63269 105.517 2.49443 106.061 2.49443C106.14 2.49443 106.204 2.49779 106.247 2.50048C106.262 2.50048 106.319 2.50048 106.334 2.50048C106.623 2.48169 108.139 2.46491 109.79 3.9421C112.857 6.6851 114.412 12.5328 114.412 21.3207C114.412 29.9275 112.868 35.6954 109.817 38.4618L109.813 38.4598ZM128.747 39.3189C128.479 39.6135 127.967 39.9639 127.089 39.9639C125.94 39.9639 125.181 39.3847 124.898 38.2894C124.865 38.1618 124.798 38.0455 124.705 37.9526C124.611 37.8598 124.495 37.7939 124.367 37.7618C124.309 37.7469 124.249 37.7394 124.189 37.7397C124.087 37.7398 123.987 37.761 123.894 37.8017C123.801 37.8425 123.717 37.902 123.648 37.9766L123.554 38.0826C122.333 39.492 121.317 39.9383 119.892 39.9383C119.871 39.9383 119.851 39.9383 119.83 39.9383C119.509 39.9377 119.192 39.8708 118.899 39.7419C118.605 39.613 118.341 39.4249 118.124 39.1894C116.829 37.8612 116.544 35.0007 116.58 33.502V15.4522C116.572 15.318 116.521 14.1469 117.223 13.3871C117.495 13.0925 118.003 12.7415 118.881 12.7408C119.585 12.7408 120.143 12.9583 120.537 13.3858C121.241 14.1495 121.189 15.3194 121.18 15.4965V27.9208C121.193 28.251 121.191 28.6389 121.191 29.0443C121.191 29.4396 121.2 29.7779 121.216 30.0725V31.2027C121.216 32.3638 122.015 33.3047 123 33.3047C123.984 33.3047 124.783 32.3652 124.783 31.2027V30.4786C124.788 30.2685 124.787 30.049 124.783 29.8202V29.453C124.783 29.4383 124.783 29.4228 124.783 29.4081C124.787 29.3747 124.79 29.3411 124.79 29.3074V15.4522C124.782 15.318 124.732 14.1476 125.433 13.3858C125.701 13.0918 126.212 12.7415 127.09 12.7408C127.969 12.7401 128.476 13.0918 128.747 13.3858C129.45 14.1469 129.399 15.3214 129.389 15.4972V37.2511C129.397 37.3853 129.448 38.5565 128.746 39.3162L128.747 39.3189ZM140.437 39.6209C139.813 39.8894 139.119 39.9129 138.912 39.9129H138.79C134.274 39.9129 133.518 34.5343 133.388 32.8356C133.359 32.6246 133.351 32.4113 133.363 32.1987V18.5744C133.357 18.0912 133.255 17.7234 133.058 17.4818C132.96 17.3744 132.838 17.292 132.702 17.2415C131.782 16.8979 131.316 16.1912 131.316 15.1409C131.316 14.0502 131.843 13.3073 132.84 12.9932C132.971 12.9522 133.088 12.8754 133.177 12.7716C133.266 12.6678 133.324 12.5412 133.345 12.4059C133.356 12.331 133.362 12.2555 133.363 12.1797L133.344 10.9348C133.356 10.8806 133.363 10.8252 133.363 10.7696V6.19512C133.355 6.06093 133.304 4.88976 134.007 4.12867C134.276 3.83472 134.784 3.48438 135.663 3.48371C136.542 3.48303 137.054 3.83337 137.322 4.12801C138.025 4.88841 137.974 6.06224 137.964 6.23874V12.1086C137.964 12.2966 138.036 12.4774 138.165 12.6138C138.295 12.7502 138.472 12.8317 138.659 12.8415C139.372 12.8797 141.031 13.1804 141.031 15.1402C141.031 16.7039 139.931 17.416 138.91 17.416C138.778 17.4164 138.648 17.4518 138.534 17.5187C138.065 17.7999 137.98 18.5221 137.964 18.855V31.3631C137.964 35.1054 140.387 35.6477 140.702 35.7027C141.3 35.7772 141.642 36.5585 141.642 37.8457C141.642 38.68 141.239 39.2773 140.439 39.6209" fill="white"/>
</g>
</g>
<defs>
<clipPath id="clip0_1819_24175">
<rect width="177" height="42" fill="white"/>
</clipPath>
<clipPath id="clip1_1819_24175">
<rect width="109.725" height="42" fill="white" transform="translate(33.6375)"/>
</clipPath>
</defs>
</svg>
