<svg width="177" height="42" viewBox="0 0 177 42" fill="none" xmlns="http://www.w3.org/2000/svg">
<g clip-path="url(#clip0_1819_24136)">
<path d="M11.265 0.973572H24.8957V1.37645H21.5384L31.7111 30.4844L40.2722 1.37645H36.9149V0.973572H44.2674V1.37645H41.0108L28.9245 41.5971L14.8573 1.37645H11.265V0.973572Z" fill="white"/>
<path d="M102.987 0.268524V14.235H102.685C102.114 11.482 101.308 8.7961 99.898 6.37884C98.2194 3.52512 95.5335 0.33567 92.0419 0.33567C84.0179 0.33567 83.3129 15.3429 83.3129 21.0503C83.3129 26.187 83.7158 31.458 85.4952 36.2589C86.7374 39.6162 88.5503 41.2949 91.9076 41.2949C94.5599 41.2949 97.38 39.8848 98.8237 37.4676C99.193 36.8297 99.2266 36.1246 99.2266 35.4196V35.3189V24.6426H95.735V24.2062H108.56V24.6426H105.572V40.7913H105.303C104.531 39.482 103.356 38.6091 101.845 38.6091C100.737 38.6091 99.663 39.0119 98.6894 39.5827L97.8165 40.0863C95.8692 40.9927 93.9892 41.6642 91.8069 41.6642C81.8693 41.6642 76.5647 30.5851 76.5647 21.386C76.5647 14.6714 79.0155 7.48675 84.2194 3.29011C86.5695 1.41001 89.3896 -6.10352e-05 92.4112 -6.10352e-05C93.5863 -6.10352e-05 94.7613 0.369244 95.8357 0.839267L96.6414 1.175C97.5479 1.51073 98.5551 1.84646 99.5287 1.84646C100.737 1.84646 101.845 1.00713 102.785 0.268524H102.987Z" fill="white"/>
<path d="M106.781 0.973572H120.445V1.37645H116.819V32.398C116.819 37.2661 121.62 40.2206 125.783 40.2206C130.282 40.2206 134.076 36.9304 134.076 32.1294V1.37645H129.778V0.973572H165.03V15.3764H164.761C164.359 11.5827 163.654 7.65463 161.136 4.70019C158.618 1.71218 155.16 1.41002 151.601 1.41002H147.773V19.9088C148.546 20.0095 149.351 20.0431 150.157 20.0431C154.958 20.0431 156.2 16.5851 156.402 12.3213H156.737V28.5371H156.402C155.797 24.6426 154.152 20.5131 149.821 20.5131C149.15 20.5131 148.478 20.5467 147.773 20.6139V40.3884H153.514C156.469 40.3884 159.423 39.0455 161.538 36.8633C163.318 35.0167 164.56 32.633 164.996 30.0143C165.231 28.5707 165.332 27.0935 165.433 25.6163H165.735V40.7577H138.172V40.3549H141.361V1.37645H134.579V32.2302C134.579 38.6091 128.771 41.4292 123.366 41.4292C117.222 41.4292 110.44 38.3069 110.44 30.9544V1.37645H106.714V0.973572H106.781Z" fill="white"/>
<path d="M49.3033 20.3117C49.169 20.1438 49.0682 20.0431 48.7997 20.0431C48.5646 20.0431 48.3968 20.1438 48.3968 20.3788C48.3968 20.6138 48.5646 20.7145 48.9004 20.7817C49.3704 20.8824 49.639 21.0838 49.639 21.5203C49.639 21.8896 49.404 22.2253 48.8332 22.2253C48.4304 22.2253 48.1282 22.091 47.9268 21.8225L48.2289 21.5874C48.3632 21.7553 48.4975 21.856 48.7997 21.856C49.1354 21.856 49.2361 21.6882 49.2361 21.5203C49.2361 21.3189 49.1354 21.1846 48.6989 21.1174C48.2289 21.0167 47.9603 20.7817 47.9603 20.3452C47.9603 19.9759 48.1953 19.6402 48.7661 19.6402C49.1354 19.6402 49.404 19.7745 49.5718 20.0431L49.3033 20.3117Z" fill="white"/>
<path d="M50.4783 22.1918H50.0754V19.6738H50.4783V22.1918Z" fill="white"/>
<path d="M52.7613 19.7074V22.2254H52.392L51.4184 20.5132V22.2254H51.0155V19.7074H51.3512L52.3249 21.4196V19.7074H52.7613Z" fill="white"/>
<path d="M54.9771 20.916V21.1174C54.9771 21.8896 54.6414 22.2589 54.1042 22.2589C53.5671 22.2589 53.1978 21.9232 53.1978 21.1174V20.8153C53.1978 20.0095 53.5671 19.6738 54.1042 19.6738C54.5743 19.6738 54.91 19.9424 54.9771 20.4796H54.5743C54.5071 20.1774 54.3728 20.0431 54.1042 20.0431C53.7685 20.0431 53.6006 20.2445 53.6006 20.8153V21.151C53.6006 21.6882 53.7685 21.9232 54.1042 21.9232C54.4064 21.9232 54.5743 21.7218 54.5743 21.3525H54.1042V20.9832H54.9771V20.916Z" fill="white"/>
<path d="M55.1451 22.1918L55.9845 19.6738H56.3538L57.1931 22.1918H56.7567L56.5888 21.6882H55.7159L55.548 22.1918H55.1451ZM55.8502 21.3189H56.4881L56.1523 20.3117L55.8502 21.3189Z" fill="white"/>
<path d="M57.8644 21.2853V22.1918H57.4615V19.6738H58.2673C58.8045 19.6738 59.1402 19.9424 59.1402 20.4796C59.1402 20.9832 58.8045 21.2853 58.2673 21.2853H57.8644ZM58.2337 20.916C58.603 20.916 58.7709 20.7817 58.7709 20.4796C58.7709 20.211 58.603 20.0431 58.2337 20.0431H57.8644V20.916H58.2337Z" fill="white"/>
<path d="M60.2817 22.2254C59.7445 22.2254 59.3752 21.8897 59.3752 21.0839V20.7482C59.3752 19.976 59.7445 19.6067 60.2817 19.6067C60.8189 19.6067 61.1882 19.9424 61.1882 20.7482V21.0839C61.1882 21.8897 60.8189 22.2254 60.2817 22.2254ZM59.8117 21.1175C59.8117 21.6547 59.9796 21.8897 60.3153 21.8897C60.651 21.8897 60.8189 21.6882 60.8189 21.1175V20.7817C60.8189 20.2446 60.651 20.0096 60.3153 20.0096C59.9796 20.0096 59.8117 20.211 59.8117 20.7817V21.1175Z" fill="white"/>
<path d="M62.9676 22.1918L62.4975 21.1846H62.0275V22.1918H61.6246V19.6738H62.4304C62.9676 19.6738 63.3033 19.9088 63.3033 20.4124C63.3033 20.7481 63.1354 20.9832 62.8668 21.0839L63.3704 22.1582H62.9676V22.1918ZM62.4304 20.8153C62.7661 20.8153 62.934 20.7146 62.934 20.446C62.934 20.1774 62.7661 20.0767 62.4304 20.0767H62.0611V20.8153H62.4304Z" fill="white"/>
<path d="M65.217 19.7074V20.0767H64.1426V20.7482H65.1162V21.1175H64.1426V21.8561H65.217V22.2254H63.7397V19.7074H65.217Z" fill="white"/>
<path d="M68.4064 6.37882C65.6534 2.82007 61.356 0.134216 56.8572 0.134216C51.9891 0.134216 47.591 2.95436 44.7037 6.91599C41.7493 10.9448 40.3057 16.0143 40.3057 21.0839C40.3057 26.3213 41.85 31.6594 45.0395 35.7553C47.826 39.3812 52.157 42.0335 56.6894 42.0335C61.5239 42.0335 65.8884 39.1798 68.7421 35.2517C71.6966 31.2229 73.1402 26.1534 73.1402 21.1174C73.1402 15.8129 71.5623 10.4747 68.4064 6.37882ZM56.7229 41.3956C49.2025 41.3956 47.2217 26.892 47.2217 21.0503C47.2217 15.2421 49.169 0.738533 56.7229 0.738533C64.2433 0.738533 66.2241 15.2421 66.2241 21.0503C66.2241 26.8584 64.2433 41.3956 56.7229 41.3956Z" fill="white"/>
</g>
<defs>
<clipPath id="clip0_1819_24136">
<rect width="177" height="42" fill="white"/>
</clipPath>
</defs>
</svg>
