<svg width="53" height="41" viewBox="0 0 53 41" fill="none" xmlns="http://www.w3.org/2000/svg">
<path d="M51.4834 21.1052L52.2334 21.1052L52.2334 19.6052L51.4834 19.6052L51.4834 20.3552L51.4834 21.1052ZM1.4834 19.6052C1.06919 19.6052 0.7334 19.941 0.7334 20.3552C0.7334 20.7694 1.06918 21.1052 1.4834 21.1052L1.4834 20.3552L1.4834 19.6052ZM19.9642 39.5859L19.9642 40.3359L21.4642 40.3359L21.4642 39.5859L20.7142 39.5859L19.9642 39.5859ZM2.03581 19.89C1.67217 19.6917 1.2166 19.8257 1.01826 20.1893C0.819914 20.553 0.953916 21.0085 1.31756 21.2069L1.67668 20.5484L2.03581 19.89ZM21.4643 1.31768L21.4643 0.567678L19.9643 0.567678L19.9643 1.31768L20.7143 1.31768L21.4643 1.31768ZM51.4834 20.3552L51.4834 19.6052L1.67684 19.6052L1.67684 20.3552L1.67684 21.1052L51.4834 21.1052L51.4834 20.3552ZM1.67684 20.3552L1.67684 19.6052L1.4834 19.6052L1.4834 20.3552L1.4834 21.1052L1.67684 21.1052L1.67684 20.3552ZM20.7142 39.5859L21.4642 39.5859C21.4642 37.1619 20.1419 34.7215 18.321 32.4867C16.4851 30.2336 14.0556 28.0843 11.654 26.2285C9.24799 24.3694 6.84569 22.7863 5.04704 21.669C4.14702 21.1099 3.39646 20.6664 2.86997 20.3622C2.60669 20.21 2.39934 20.0926 2.25723 20.013C2.18617 19.9731 2.13141 19.9427 2.09413 19.9221C2.07548 19.9118 2.0612 19.9039 2.05144 19.8986C2.04655 19.8959 2.04279 19.8938 2.04019 19.8924C2.03888 19.8917 2.03786 19.8911 2.03713 19.8907C2.03677 19.8905 2.03644 19.8904 2.03625 19.8903C2.036 19.8901 2.03581 19.89 1.67668 20.5484C1.31756 21.2069 1.31751 21.2068 1.31755 21.2069C1.31766 21.2069 1.31776 21.207 1.31797 21.2071C1.3184 21.2073 1.31912 21.2077 1.32012 21.2083C1.32212 21.2094 1.32526 21.2111 1.32953 21.2134C1.33806 21.2181 1.35109 21.2253 1.36846 21.2349C1.40322 21.2541 1.45536 21.2831 1.52374 21.3214C1.6605 21.3981 1.86216 21.5122 2.11943 21.6609C2.63406 21.9583 3.3708 22.3936 4.25554 22.9432C6.02642 24.0433 8.38349 25.597 10.7368 27.4155C13.0946 29.2373 15.4245 31.3066 17.1581 33.4342C18.9067 35.5803 19.9642 37.683 19.9642 39.5859L20.7142 39.5859ZM1.67684 20.3552C1.95781 21.0505 1.95806 21.0504 1.95838 21.0503C1.95858 21.0502 1.95897 21.0501 1.95938 21.0499C1.96019 21.0496 1.96129 21.0491 1.96268 21.0486C1.96546 21.0474 1.96938 21.0458 1.97443 21.0438C1.98453 21.0396 1.99915 21.0336 2.01814 21.0258C2.05612 21.0101 2.11158 20.987 2.18336 20.9565C2.32692 20.8957 2.53581 20.8056 2.80071 20.6873C3.33039 20.4507 4.08462 20.101 4.98866 19.6459C6.79487 18.7367 9.20829 17.4024 11.6265 15.7047C14.0409 14.0098 16.4862 11.9345 18.3338 9.53627C20.1824 7.13696 21.4643 4.37179 21.4643 1.31768L20.7143 1.31768L19.9643 1.31768C19.9643 3.93615 18.8666 6.38697 17.1456 8.6208C15.4237 10.8557 13.1097 12.8307 10.7646 14.477C8.42349 16.1206 6.07755 17.4184 4.31422 18.3061C3.4335 18.7494 2.70043 19.0893 2.189 19.3177C1.93334 19.4319 1.73322 19.5181 1.59791 19.5755C1.53026 19.6042 1.47882 19.6256 1.44475 19.6397C1.42772 19.6468 1.41504 19.652 1.40684 19.6553C1.40274 19.657 1.39976 19.6582 1.39793 19.6589C1.39701 19.6593 1.39638 19.6596 1.39603 19.6597C1.39586 19.6598 1.39581 19.6598 1.39573 19.6598C1.39576 19.6598 1.39586 19.6598 1.67684 20.3552Z" fill="white"/>
</svg>
