<svg width="53" height="41" viewBox="0 0 53 41" fill="none" xmlns="http://www.w3.org/2000/svg">
<path d="M1.26904 19.9317H0.519043V21.4317H1.26904V20.6817V19.9317ZM51.269 21.4317C51.6833 21.4317 52.019 21.0959 52.019 20.6817C52.019 20.2675 51.6833 19.9317 51.269 19.9317V20.6817V21.4317ZM32.7883 1.45093V0.700928H31.2883V1.45093H32.0383H32.7883ZM50.7166 21.1468C51.0803 21.3452 51.5358 21.2112 51.7342 20.8475C51.9325 20.4839 51.7985 20.0283 51.4349 19.83L51.0758 20.4884L50.7166 21.1468ZM31.2881 39.7192V40.4692H32.7881V39.7192H32.0381H31.2881ZM1.26904 20.6817V21.4317H51.0756V20.6817V19.9317H1.26904V20.6817ZM51.0756 20.6817V21.4317H51.269V20.6817V19.9317H51.0756V20.6817ZM32.0383 1.45093H31.2883C31.2883 3.87495 32.6105 6.31535 34.4314 8.55013C36.2673 10.8033 38.6968 12.9526 41.0984 14.8083C43.5045 16.6675 45.9068 18.2505 47.7054 19.3678C48.6054 19.9269 49.356 20.3705 49.8825 20.6747C50.1458 20.8269 50.3531 20.9442 50.4952 21.0239C50.5663 21.0637 50.621 21.0942 50.6583 21.1148C50.677 21.1251 50.6912 21.1329 50.701 21.1383C50.7059 21.141 50.7096 21.143 50.7123 21.1445C50.7136 21.1452 50.7146 21.1457 50.7153 21.1461C50.7157 21.1463 50.716 21.1465 50.7162 21.1466C50.7164 21.1467 50.7166 21.1468 51.0758 20.4884C51.4349 19.83 51.4349 19.83 51.4349 19.83C51.4348 19.8299 51.4347 19.8299 51.4345 19.8298C51.434 19.8295 51.4333 19.8291 51.4323 19.8286C51.4303 19.8275 51.4272 19.8258 51.4229 19.8234C51.4144 19.8187 51.4014 19.8116 51.384 19.802C51.3492 19.7828 51.2971 19.7538 51.2287 19.7155C51.0919 19.6388 50.8903 19.5247 50.633 19.376C50.1184 19.0786 49.3816 18.6433 48.4969 18.0937C46.726 16.9936 44.3689 15.4399 42.0156 13.6214C39.6578 11.7995 37.328 9.73031 35.5943 7.60262C33.8457 5.45658 32.7883 3.35383 32.7883 1.45093H32.0383ZM51.0756 20.6817C50.7946 19.9863 50.7944 19.9864 50.7941 19.9865C50.7939 19.9866 50.7935 19.9868 50.7931 19.9869C50.7923 19.9873 50.7911 19.9877 50.7898 19.9883C50.787 19.9894 50.7831 19.991 50.778 19.9931C50.7679 19.9972 50.7533 20.0032 50.7343 20.0111C50.6963 20.0268 50.6409 20.0499 50.5691 20.0803C50.4255 20.1412 50.2166 20.2313 49.9517 20.3496C49.4221 20.5862 48.6678 20.9359 47.7638 21.391C45.9576 22.3002 43.5442 23.6345 41.1259 25.3322C38.7116 27.0271 36.2663 29.1024 34.4186 31.5006C32.5701 33.8999 31.2881 36.6651 31.2881 39.7192H32.0381H32.7881C32.7881 37.1007 33.8858 34.6499 35.6068 32.4161C37.3287 30.1811 39.6428 28.2061 41.9878 26.5598C44.3289 24.9163 46.6749 23.6184 48.4382 22.7308C49.3189 22.2875 50.052 21.9476 50.5634 21.7192C50.8191 21.605 51.0192 21.5187 51.1545 21.4614C51.2222 21.4327 51.2736 21.4112 51.3077 21.3972C51.3247 21.3901 51.3374 21.3849 51.3456 21.3815C51.3497 21.3799 51.3527 21.3787 51.3545 21.3779C51.3554 21.3775 51.3561 21.3773 51.3564 21.3771C51.3566 21.3771 51.3566 21.3771 51.3567 21.377C51.3567 21.377 51.3566 21.3771 51.0756 20.6817Z" fill="white"/>
</svg>
