<svg width="41" height="16" viewBox="0 0 41 16" fill="none" xmlns="http://www.w3.org/2000/svg">
<path d="M0.5 7.25144H0V8.25144H0.5V7.75144V7.25144ZM39.946 8.25144C40.2222 8.25144 40.446 8.02758 40.446 7.75144C40.446 7.4753 40.2222 7.25144 39.946 7.25144V7.75144V8.25144ZM33.1946 0.5V0H32.1946V0.5H32.6946H33.1946ZM39.6337 8.11751C39.8762 8.24974 40.1799 8.16041 40.3121 7.91798C40.4443 7.67555 40.355 7.37184 40.1126 7.23961L39.8731 7.67856L39.6337 8.11751ZM32.1945 14.93V15.43H33.1945V14.93H32.6945H32.1945ZM0.5 7.75144V8.25144H39.8731V7.75144V7.25144H0.5V7.75144ZM39.8731 7.75144V8.25144H39.946V7.75144V7.25144H39.8731V7.75144ZM32.6946 0.5H32.1946C32.1946 1.48949 32.7315 2.4586 33.4286 3.31413C34.1357 4.1819 35.0662 5.00394 35.9782 5.70861C36.893 6.41554 37.8054 7.01671 38.4877 7.44051C38.8293 7.65271 39.1143 7.82114 39.3145 7.93686C39.4147 7.99473 39.4937 8.03946 39.548 8.06994C39.5752 8.08517 39.5962 8.09685 39.6107 8.10483C39.6179 8.10881 39.6234 8.11188 39.6273 8.114C39.6292 8.11506 39.6307 8.11588 39.6318 8.11647C39.6324 8.11676 39.6328 8.11699 39.6331 8.11717C39.6333 8.11726 39.6334 8.11734 39.6335 8.11739C39.6336 8.11746 39.6337 8.11751 39.8731 7.67856C40.1126 7.23961 40.1126 7.23963 40.1126 7.23965C40.1126 7.23963 40.1126 7.23963 40.1125 7.23959C40.1124 7.23953 40.1122 7.23941 40.1119 7.23922C40.1112 7.23886 40.1101 7.23826 40.1086 7.23742C40.1055 7.23576 40.1008 7.23315 40.0944 7.22963C40.0817 7.22259 40.0624 7.21188 40.037 7.19765C39.9862 7.16917 39.911 7.1266 39.8149 7.07104C39.6225 6.95989 39.3467 6.79693 39.0153 6.59107C38.3516 6.17876 37.4694 5.59712 36.5896 4.91732C35.7069 4.23523 34.8428 3.46658 34.2039 2.68246C33.555 1.88608 33.1946 1.14208 33.1946 0.5H32.6946ZM39.8731 7.75144C39.6858 7.28785 39.6856 7.28791 39.6855 7.28798C39.6854 7.28802 39.6852 7.2881 39.685 7.28818C39.6846 7.28833 39.6841 7.28852 39.6835 7.28876C39.6824 7.28924 39.6807 7.2899 39.6787 7.29074C39.6746 7.29241 39.6688 7.29479 39.6614 7.29786C39.6465 7.30402 39.625 7.31299 39.5973 7.32472C39.542 7.34817 39.462 7.38269 39.3607 7.4279C39.1584 7.51828 38.8709 7.65159 38.5266 7.82489C37.8393 8.17086 36.9195 8.67927 35.9965 9.32725C35.0761 9.97342 34.135 10.7705 33.4201 11.6984C32.7046 12.6271 32.1945 13.7153 32.1945 14.93H32.6945H33.1945C33.1945 14.0057 33.5818 13.1271 34.2123 12.3087C34.8433 11.4896 35.6969 10.7594 36.5711 10.1457C37.4427 9.53379 38.3176 9.04969 38.9763 8.71811C39.305 8.55263 39.5783 8.42592 39.7685 8.34097C39.8636 8.29851 39.9378 8.26653 39.9876 8.2454C40.0125 8.23484 40.0313 8.227 40.0436 8.22192C40.0498 8.21938 40.0543 8.21753 40.0571 8.21638C40.0585 8.21581 40.0595 8.21541 40.06 8.21518C40.0603 8.21507 40.0605 8.215 40.0605 8.21497C40.0606 8.21496 40.0605 8.21497 40.0606 8.21497C40.0605 8.21499 40.0604 8.21503 39.8731 7.75144Z" fill="#25140C"/>
</svg>
